<!DOCTYPE svg PUBLIC "-//W3C//DTD SVG 1.1//EN" "http://www.w3.org/Graphics/SVG/1.1/DTD/svg11.dtd">
<!-- Uploaded to: SVG Repo, www.svgrepo.com, Transformed by: SVG Repo Mixer Tools -->
<svg fill="#00b3ff" width="800px" height="800px" viewBox="0 0 24 24" xmlns="http://www.w3.org/2000/svg" stroke="#00b3ff" stroke-width="1.056">
<g id="SVGRepo_bgCarrier" stroke-width="0"/>
<g id="SVGRepo_tracerCarrier" stroke-linecap="round" stroke-linejoin="round"/>
<g id="SVGRepo_iconCarrier">
<path d="M4,1A1,1,0,0,0,3,2V22a1,1,0,0,0,2,0V15H20a1,1,0,0,0,.781-1.625L17.281,9l3.5-4.375A1,1,0,0,0,20,3H5V2A1,1,0,0,0,4,1ZM17.919,5l-2.7,3.375a1,1,0,0,0,0,1.25L17.919,13H5V5Z"/>
</g>
</svg>